# xmcd
#
# Track frame offsets: 
#        150
#        24012
#        48374
#        67574
#        85663
#        102487
#        126382
#        147470
#        160030
#        178361
#        199865
#
# Disc length: 2921 seconds
#
# Revision: 0
# Processed by: cddbd v1.5PL3 Copyright (c) Steve Scherf et al.
# Submitted via: ExactAudioCopy v0.95a5
#
DISCID=8f0b670b
DTITLE=凡人 - 心甘情愿
DYEAR=2002
DGENRE=Pop
TTITLE0=凡人得奖感言 我愿是你最温柔的风
TTITLE1=歌手与舞女
TTITLE2=心甘情愿
TTITLE3=爱情遗书
TTITLE4=如梦令
TTITLE5=心碎码头
TTITLE6=我还是依然的爱著你
TTITLE7=别让感情著凉
TTITLE8=城市庙宇
TTITLE9=I Don't Wanna Say Goodbye
TTITLE10=我愿是你最温柔的风
EXTD=
EXTT0=
EXTT1=
EXTT2=
EXTT3=
EXTT4=
EXTT5=
EXTT6=
EXTT7=
EXTT8=
EXTT9=
EXTT10=
PLAYORDER=
